<svg xmlns="http://www.w3.org/2000/svg" viewBox="0 0 900 560" width="900" height="560" font-family="Inter,Segoe UI,Helvetica,Arial,sans-serif"><rect width="900" height="560" fill="#ffffff"/><text x="450.0" y="30" text-anchor="middle" font-size="20" font-weight="700" fill="#1f2937">Mẫu nến đơn — cùng hình dạng, khác vị trí = khác ý nghĩa</text><rect x="15" y="50" width="210" height="245" rx="10" fill="#f9fafb" stroke="#e5e7eb"/><text x="120.0" y="72" text-anchor="middle" font-size="14" font-weight="700" fill="#1f2937">Cấu tạo nến</text><text x="120.0" y="269" text-anchor="middle" font-size="11" font-weight="400" fill="#6b7280">Thân = Open↔Close</text><text x="120.0" y="284" text-anchor="middle" font-size="11" font-weight="400" fill="#6b7280">Bóng = High/Low</text><g opacity="1"><line x1="90" y1="100" x2="90" y2="245" stroke="#16a34a" stroke-width="2"/><rect x="77.0" y="135" width="26" height="65" fill="#16a34a" stroke="#16a34a" stroke-width="2"/></g><g opacity="1"><line x1="150" y1="100" x2="150" y2="245" stroke="#dc2626" stroke-width="2"/><rect x="137.0" y="135" width="26" height="65" fill="#dc2626" stroke="#dc2626" stroke-width="2"/></g><text x="120" y="104" text-anchor="middle" font-size="10" font-weight="400" fill="#6b7280">High</text><text x="120" y="249" text-anchor="middle" font-size="10" font-weight="400" fill="#6b7280">Low</text><text x="72" y="139" text-anchor="end" font-size="10" font-weight="400" fill="#16a34a">Close</text><text x="72" y="204" text-anchor="end" font-size="10" font-weight="400" fill="#16a34a">Open</text><text x="168" y="139" text-anchor="start" font-size="10" font-weight="400" fill="#dc2626">Open</text><text x="168" y="204" text-anchor="start" font-size="10" font-weight="400" fill="#dc2626">Close</text><text x="72" y="175" text-anchor="end" font-size="10" font-weight="400" fill="#6b7280">Thân</text><text x="96" y="118" text-anchor="start" font-size="10" font-weight="400" fill="#6b7280">Bóng trên</text><rect x="240" y="50" width="210" height="245" rx="10" fill="#f9fafb" stroke="#e5e7eb"/><text x="345.0" y="72" text-anchor="middle" font-size="14" font-weight="700" fill="#16a34a">Hammer (Búa)</text><text x="345.0" y="269" text-anchor="middle" font-size="11" font-weight="400" fill="#6b7280">Ở ĐÁY · bóng dưới ≥2–3× thân</text><text x="345.0" y="284" text-anchor="middle" font-size="11" font-weight="400" fill="#6b7280">★★★ khi có nến tăng xác nhận</text><g opacity="0.45"><line x1="280" y1="90" x2="280" y2="136" stroke="#dc2626" stroke-width="2"/><rect x="274.0" y="96" width="12" height="34" fill="#dc2626" stroke="#dc2626" stroke-width="2"/></g><g opacity="0.45"><line x1="304" y1="116" x2="304" y2="162" stroke="#dc2626" stroke-width="2"/><rect x="298.0" y="122" width="12" height="34" fill="#dc2626" stroke="#dc2626" stroke-width="2"/></g><g opacity="0.45"><line x1="328" y1="142" x2="328" y2="188" stroke="#dc2626" stroke-width="2"/><rect x="322.0" y="148" width="12" height="34" fill="#dc2626" stroke="#dc2626" stroke-width="2"/></g><rect x="340" y="182" width="40" height="61" rx="6" fill="none" stroke="#16a34a" stroke-dasharray="3 3"/><g opacity="1"><line x1="360" y1="190" x2="360" y2="235" stroke="#16a34a" stroke-width="2"/><rect x="351.0" y="190" width="18" height="8" fill="#16a34a" stroke="#16a34a" stroke-width="2"/></g><g opacity="0.9"><line x1="394" y1="150" x2="394" y2="200" stroke="#16a34a" stroke-width="2" stroke-dasharray="4 3"/><rect x="387.0" y="156" width="14" height="38" fill="none" stroke="#16a34a" stroke-width="2" stroke-dasharray="4 3"/></g><text x="394" y="142" text-anchor="middle" font-size="9" font-weight="400" fill="#6b7280">xác nhận</text><rect x="465" y="50" width="210" height="245" rx="10" fill="#f9fafb" stroke="#e5e7eb"/><text x="570.0" y="72" text-anchor="middle" font-size="14" font-weight="700" fill="#dc2626">Hanging Man</text><text x="570.0" y="269" text-anchor="middle" font-size="11" font-weight="400" fill="#6b7280">Ở ĐỈNH · cùng hình Hammer</text><text x="570.0" y="284" text-anchor="middle" font-size="11" font-weight="400" fill="#6b7280">★★ BẮT BUỘC chờ nến giảm</text><g opacity="0.45"><line x1="505" y1="190" x2="505" y2="238" stroke="#16a34a" stroke-width="2"/><rect x="499.0" y="198" width="12" height="32" fill="#16a34a" stroke="#16a34a" stroke-width="2"/></g><g opacity="0.45"><line x1="529" y1="160" x2="529" y2="208" stroke="#16a34a" stroke-width="2"/><rect x="523.0" y="168" width="12" height="32" fill="#16a34a" stroke="#16a34a" stroke-width="2"/></g><g opacity="0.45"><line x1="553" y1="130" x2="553" y2="178" stroke="#16a34a" stroke-width="2"/><rect x="547.0" y="138" width="12" height="32" fill="#16a34a" stroke="#16a34a" stroke-width="2"/></g><rect x="565" y="120" width="40" height="60" rx="6" fill="none" stroke="#dc2626" stroke-dasharray="3 3"/><g opacity="1"><line x1="585" y1="128" x2="585" y2="172" stroke="#dc2626" stroke-width="2"/><rect x="576.0" y="128" width="18" height="8" fill="#dc2626" stroke="#dc2626" stroke-width="2"/></g><g opacity="0.9"><line x1="619" y1="126" x2="619" y2="178" stroke="#dc2626" stroke-width="2" stroke-dasharray="4 3"/><rect x="612.0" y="132" width="14" height="40" fill="none" stroke="#dc2626" stroke-width="2" stroke-dasharray="4 3"/></g><text x="619" y="192" text-anchor="middle" font-size="9" font-weight="400" fill="#6b7280">xác nhận</text><rect x="690" y="50" width="210" height="245" rx="10" fill="#f9fafb" stroke="#e5e7eb"/><text x="795.0" y="72" text-anchor="middle" font-size="14" font-weight="700" fill="#16a34a">Inverted Hammer</text><text x="795.0" y="269" text-anchor="middle" font-size="11" font-weight="400" fill="#6b7280">Ở ĐÁY · bóng trên ≥2× thân</text><text x="795.0" y="284" text-anchor="middle" font-size="11" font-weight="400" fill="#6b7280">★★ cần nến tăng đóng trên bóng</text><g opacity="0.45"><line x1="730" y1="90" x2="730" y2="136" stroke="#dc2626" stroke-width="2"/><rect x="724.0" y="96" width="12" height="34" fill="#dc2626" stroke="#dc2626" stroke-width="2"/></g><g opacity="0.45"><line x1="754" y1="116" x2="754" y2="162" stroke="#dc2626" stroke-width="2"/><rect x="748.0" y="122" width="12" height="34" fill="#dc2626" stroke="#dc2626" stroke-width="2"/></g><g opacity="0.45"><line x1="778" y1="142" x2="778" y2="188" stroke="#dc2626" stroke-width="2"/><rect x="772.0" y="148" width="12" height="34" fill="#dc2626" stroke="#dc2626" stroke-width="2"/></g><rect x="790" y="144" width="40" height="64" rx="6" fill="none" stroke="#16a34a" stroke-dasharray="3 3"/><g opacity="1"><line x1="810" y1="152" x2="810" y2="200" stroke="#16a34a" stroke-width="2"/><rect x="801.0" y="190" width="18" height="8" fill="#16a34a" stroke="#16a34a" stroke-width="2"/></g><g opacity="0.9"><line x1="844" y1="150" x2="844" y2="200" stroke="#16a34a" stroke-width="2" stroke-dasharray="4 3"/><rect x="837.0" y="156" width="14" height="38" fill="none" stroke="#16a34a" stroke-width="2" stroke-dasharray="4 3"/></g><text x="844" y="142" text-anchor="middle" font-size="9" font-weight="400" fill="#6b7280">xác nhận</text><rect x="15" y="305" width="210" height="245" rx="10" fill="#f9fafb" stroke="#e5e7eb"/><text x="120.0" y="327" text-anchor="middle" font-size="14" font-weight="700" fill="#dc2626">Shooting Star</text><text x="120.0" y="524" text-anchor="middle" font-size="11" font-weight="400" fill="#6b7280">Ở ĐỈNH · bóng trên dài</text><text x="120.0" y="539" text-anchor="middle" font-size="11" font-weight="400" fill="#6b7280">★★★ xác nhận bằng vol lớn</text><g opacity="0.45"><line x1="55" y1="445" x2="55" y2="493" stroke="#16a34a" stroke-width="2"/><rect x="49.0" y="453" width="12" height="32" fill="#16a34a" stroke="#16a34a" stroke-width="2"/></g><g opacity="0.45"><line x1="79" y1="415" x2="79" y2="463" stroke="#16a34a" stroke-width="2"/><rect x="73.0" y="423" width="12" height="32" fill="#16a34a" stroke="#16a34a" stroke-width="2"/></g><g opacity="0.45"><line x1="103" y1="385" x2="103" y2="433" stroke="#16a34a" stroke-width="2"/><rect x="97.0" y="393" width="12" height="32" fill="#16a34a" stroke="#16a34a" stroke-width="2"/></g><rect x="115" y="337" width="40" height="60" rx="6" fill="none" stroke="#dc2626" stroke-dasharray="3 3"/><g opacity="1"><line x1="135" y1="345" x2="135" y2="389" stroke="#dc2626" stroke-width="2"/><rect x="126.0" y="379" width="18" height="8" fill="#dc2626" stroke="#dc2626" stroke-width="2"/></g><g opacity="0.9"><line x1="169" y1="377" x2="169" y2="429" stroke="#dc2626" stroke-width="2" stroke-dasharray="4 3"/><rect x="162.0" y="383" width="14" height="40" fill="none" stroke="#dc2626" stroke-width="2" stroke-dasharray="4 3"/></g><text x="169" y="443" text-anchor="middle" font-size="9" font-weight="400" fill="#6b7280">xác nhận</text><rect x="240" y="305" width="210" height="245" rx="10" fill="#f9fafb" stroke="#e5e7eb"/><text x="345.0" y="327" text-anchor="middle" font-size="14" font-weight="700" fill="#16a34a">Dragonfly Doji</text><text x="345.0" y="524" text-anchor="middle" font-size="11" font-weight="400" fill="#6b7280">Ở ĐÁY · mở=đóng ở đỉnh phiên</text><text x="345.0" y="539" text-anchor="middle" font-size="11" font-weight="400" fill="#6b7280">★★ phiên sau phải vượt giá đóng</text><g opacity="0.45"><line x1="280" y1="345" x2="280" y2="391" stroke="#dc2626" stroke-width="2"/><rect x="274.0" y="351" width="12" height="34" fill="#dc2626" stroke="#dc2626" stroke-width="2"/></g><g opacity="0.45"><line x1="304" y1="371" x2="304" y2="417" stroke="#dc2626" stroke-width="2"/><rect x="298.0" y="377" width="12" height="34" fill="#dc2626" stroke="#dc2626" stroke-width="2"/></g><g opacity="0.45"><line x1="328" y1="397" x2="328" y2="443" stroke="#dc2626" stroke-width="2"/><rect x="322.0" y="403" width="12" height="34" fill="#dc2626" stroke="#dc2626" stroke-width="2"/></g><rect x="340" y="437" width="40" height="61" rx="6" fill="none" stroke="#16a34a" stroke-dasharray="3 3"/><g opacity="1"><line x1="360" y1="445" x2="360" y2="490" stroke="#16a34a" stroke-width="2"/><rect x="351.0" y="445" width="18" height="2" fill="#16a34a" stroke="#16a34a" stroke-width="2"/></g><g opacity="0.9"><line x1="394" y1="405" x2="394" y2="455" stroke="#16a34a" stroke-width="2" stroke-dasharray="4 3"/><rect x="387.0" y="411" width="14" height="38" fill="none" stroke="#16a34a" stroke-width="2" stroke-dasharray="4 3"/></g><text x="394" y="397" text-anchor="middle" font-size="9" font-weight="400" fill="#6b7280">xác nhận</text><rect x="465" y="305" width="210" height="245" rx="10" fill="#f9fafb" stroke="#e5e7eb"/><text x="570.0" y="327" text-anchor="middle" font-size="14" font-weight="700" fill="#dc2626">Gravestone Doji</text><text x="570.0" y="524" text-anchor="middle" font-size="11" font-weight="400" fill="#6b7280">Ở ĐỈNH · mở=đóng ở đáy phiên</text><text x="570.0" y="539" text-anchor="middle" font-size="11" font-weight="400" fill="#6b7280">★★ kiểm tra không phải nến sàn</text><g opacity="0.45"><line x1="505" y1="445" x2="505" y2="493" stroke="#16a34a" stroke-width="2"/><rect x="499.0" y="453" width="12" height="32" fill="#16a34a" stroke="#16a34a" stroke-width="2"/></g><g opacity="0.45"><line x1="529" y1="415" x2="529" y2="463" stroke="#16a34a" stroke-width="2"/><rect x="523.0" y="423" width="12" height="32" fill="#16a34a" stroke="#16a34a" stroke-width="2"/></g><g opacity="0.45"><line x1="553" y1="385" x2="553" y2="433" stroke="#16a34a" stroke-width="2"/><rect x="547.0" y="393" width="12" height="32" fill="#16a34a" stroke="#16a34a" stroke-width="2"/></g><rect x="565" y="337" width="40" height="60" rx="6" fill="none" stroke="#dc2626" stroke-dasharray="3 3"/><g opacity="1"><line x1="585" y1="345" x2="585" y2="389" stroke="#dc2626" stroke-width="2"/><rect x="576.0" y="387" width="18" height="2" fill="#dc2626" stroke="#dc2626" stroke-width="2"/></g><g opacity="0.9"><line x1="619" y1="379" x2="619" y2="431" stroke="#dc2626" stroke-width="2" stroke-dasharray="4 3"/><rect x="612.0" y="385" width="14" height="40" fill="none" stroke="#dc2626" stroke-width="2" stroke-dasharray="4 3"/></g><text x="619" y="445" text-anchor="middle" font-size="9" font-weight="400" fill="#6b7280">xác nhận</text><rect x="690" y="305" width="210" height="245" rx="10" fill="#f9fafb" stroke="#e5e7eb"/><text x="795.0" y="327" text-anchor="middle" font-size="14" font-weight="700" fill="#6b7280">Spinning Top</text><text x="795.0" y="524" text-anchor="middle" font-size="11" font-weight="400" fill="#6b7280">Thân ≤25–30% range, 2 bóng</text><text x="795.0" y="539" text-anchor="middle" font-size="11" font-weight="400" fill="#6b7280">Do dự — KHÔNG phải đảo chiều</text><g opacity="0.45"><line x1="730" y1="445" x2="730" y2="493" stroke="#16a34a" stroke-width="2"/><rect x="724.0" y="453" width="12" height="32" fill="#16a34a" stroke="#16a34a" stroke-width="2"/></g><g opacity="0.45"><line x1="754" y1="415" x2="754" y2="463" stroke="#16a34a" stroke-width="2"/><rect x="748.0" y="423" width="12" height="32" fill="#16a34a" stroke="#16a34a" stroke-width="2"/></g><g opacity="0.45"><line x1="778" y1="385" x2="778" y2="433" stroke="#16a34a" stroke-width="2"/><rect x="772.0" y="393" width="12" height="32" fill="#16a34a" stroke="#16a34a" stroke-width="2"/></g><rect x="790" y="349" width="40" height="74" rx="6" fill="none" stroke="#6b7280" stroke-dasharray="3 3"/><g opacity="1"><line x1="810" y1="357" x2="810" y2="415" stroke="#16a34a" stroke-width="2"/><rect x="801.0" y="379" width="18" height="12" fill="#16a34a" stroke="#16a34a" stroke-width="2"/></g></svg>